<svg height="798" width="720" xmlns="http://www.w3.org/2000/svg">
<rect height="798" fill="#555" width="720"></rect>
<text fill="#7f7" font-family="Courier New" font-size="12" xml:space="preserve">
<tspan x="10" y="26">14 megabytes installed</tspan>
<tspan x="10" y="42"></tspan>
<tspan x="10" y="58">node_modules</tspan>
<tspan x="10" y="74">└─┬ cz-jira-smart-commit@2.0.1 </tspan>
<tspan x="10" y="90">  └─┬ inquirer@1.2.3 </tspan>
<tspan x="10" y="106">    ├── ansi-escapes@1.4.0 </tspan>
<tspan x="10" y="122">    ├─┬ chalk@1.1.3 </tspan>
<tspan x="10" y="138">    │ ├── ansi-styles@2.2.1 </tspan>
<tspan x="10" y="154">    │ ├── escape-string-regexp@1.0.5 </tspan>
<tspan x="10" y="170">    │ ├── has-ansi@2.0.0 </tspan>
<tspan x="10" y="186">    │ └── supports-color@2.0.0 </tspan>
<tspan x="10" y="202">    ├─┬ cli-cursor@1.0.2 </tspan>
<tspan x="10" y="218">    │ └─┬ restore-cursor@1.0.1 </tspan>
<tspan x="10" y="234">    │   ├── exit-hook@1.1.1 </tspan>
<tspan x="10" y="250">    │   └── onetime@1.1.0 </tspan>
<tspan x="10" y="266">    ├── cli-width@2.1.0 </tspan>
<tspan x="10" y="282">    ├─┬ external-editor@1.1.1 </tspan>
<tspan x="10" y="298">    │ ├── extend@3.0.0 </tspan>
<tspan x="10" y="314">    │ ├─┬ spawn-sync@1.0.15 </tspan>
<tspan x="10" y="330">    │ │ ├─┬ concat-stream@1.6.0 </tspan>
<tspan x="10" y="346">    │ │ │ ├── inherits@2.0.3 </tspan>
<tspan x="10" y="362">    │ │ │ ├─┬ readable-stream@2.2.9 </tspan>
<tspan x="10" y="378">    │ │ │ │ ├── buffer-shims@1.0.0 </tspan>
<tspan x="10" y="394">    │ │ │ │ ├── core-util-is@1.0.2 </tspan>
<tspan x="10" y="410">    │ │ │ │ ├── isarray@1.0.0 </tspan>
<tspan x="10" y="426">    │ │ │ │ ├── process-nextick-args@1.0.7 </tspan>
<tspan x="10" y="442">    │ │ │ │ ├── string_decoder@1.0.0 </tspan>
<tspan x="10" y="458">    │ │ │ │ └── util-deprecate@1.0.2 </tspan>
<tspan x="10" y="474">    │ │ │ └── typedarray@0.0.6 </tspan>
<tspan x="10" y="490">    │ │ └── os-shim@0.1.3 </tspan>
<tspan x="10" y="506">    │ └─┬ tmp@0.0.29 </tspan>
<tspan x="10" y="522">    │   └── os-tmpdir@1.0.2 </tspan>
<tspan x="10" y="538">    ├─┬ figures@1.7.0 </tspan>
<tspan x="10" y="554">    │ └── object-assign@4.1.1 </tspan>
<tspan x="10" y="570">    ├── lodash@4.17.4 </tspan>
<tspan x="10" y="586">    ├── mute-stream@0.0.6 </tspan>
<tspan x="10" y="602">    ├─┬ pinkie-promise@2.0.1 </tspan>
<tspan x="10" y="618">    │ └── pinkie@2.0.4 </tspan>
<tspan x="10" y="634">    ├─┬ run-async@2.3.0 </tspan>
<tspan x="10" y="650">    │ └── is-promise@2.1.0 </tspan>
<tspan x="10" y="666">    ├── rx@4.1.0 </tspan>
<tspan x="10" y="682">    ├─┬ string-width@1.0.2 </tspan>
<tspan x="10" y="698">    │ ├── code-point-at@1.1.0 </tspan>
<tspan x="10" y="714">    │ └─┬ is-fullwidth-code-point@1.0.0 </tspan>
<tspan x="10" y="730">    │   └── number-is-nan@1.0.1 </tspan>
<tspan x="10" y="746">    ├─┬ strip-ansi@3.0.1 </tspan>
<tspan x="10" y="762">    │ └── ansi-regex@2.1.1 </tspan>
<tspan x="10" y="778">    └── through@2.3.8</tspan>
</text>
</svg>
